<svg width="113" height="36" viewBox="0 0 113 36" fill="none" xmlns="http://www.w3.org/2000/svg">
<path d="M23.3745 11.6237C23.1428 11.3986 22.8178 11.2963 22.4997 11.3486C22.1811 11.4007 21.9058 11.6008 21.758 11.8878C21.2496 12.8755 20.6038 13.7832 19.844 14.5856C19.9198 14.0059 19.9579 13.4229 19.9579 12.8382C19.9579 11.7164 19.8076 10.562 19.5109 9.40667C18.5355 5.61179 15.9778 2.40253 12.4938 0.601801C12.1905 0.445077 11.829 0.450579 11.5306 0.616474C11.2322 0.782437 11.0367 1.08671 11.01 1.42706C10.7383 4.87567 8.96202 8.01314 6.13371 10.037C6.09628 10.064 6.05912 10.0913 6.02196 10.1185C5.94498 10.1748 5.87242 10.2281 5.80464 10.2728C5.79401 10.2798 5.7835 10.2871 5.77318 10.2944C3.99439 11.568 2.52669 13.2657 1.5285 15.2044C0.514258 17.1765 0 19.2927 0 21.4941C0 22.6156 0.150336 23.77 0.446865 24.9255C2.01173 31.0163 7.49293 35.2702 13.7762 35.2702C21.372 35.2702 27.5515 29.0903 27.5515 21.4941C27.5515 17.7482 26.0681 14.2428 23.3745 11.6237Z" fill="#CBCFFA"/>
<path d="M13.2487 25.7841C15.5772 25.7841 17.4648 23.8965 17.4648 21.5681C17.4648 19.2396 15.5772 17.3521 13.2487 17.3521C10.9203 17.3521 9.03271 19.2396 9.03271 21.5681C9.03271 23.8965 10.9203 25.7841 13.2487 25.7841Z" fill="#F8F8F8"/>
<path d="M107.906 15.6492V13.0549H107.102V12.4807H109.357V13.0549H108.565V15.6492H107.906ZM109.683 15.6492V12.4807H110.321L111.507 14.0543H111.21L112.362 12.4807H113V15.6492H112.341V13.208L112.604 13.2675L111.384 14.8411H111.299L110.121 13.2675L110.342 13.208V15.6492H109.683Z" fill="black"/>
<path d="M44.1228 29.3137C45.1846 29.3137 46.1234 29.1198 46.9402 28.7319C47.7567 28.3236 48.3794 27.7112 48.808 26.8946V28.9463H53.0953V12.2268H48.5018V21.9951C48.5018 22.9546 48.2161 23.7304 47.6446 24.3224C47.0727 24.894 46.3379 25.1798 45.4399 25.1798C44.5414 25.1798 43.8067 24.894 43.2348 24.3224C42.6633 23.7304 42.3775 22.9546 42.3775 21.9951V12.2268H37.7844V22.3626C37.7844 24.4449 38.3251 26.1291 39.4072 27.4152C40.5098 28.6809 42.0814 29.3137 44.1228 29.3137Z" fill="black"/>
<path d="M56.4523 10.7263H61.0454V6.13306H56.4523V10.7263ZM56.4523 28.9462H61.0454V12.2268H56.4523V28.9462Z" fill="black"/>
<path d="M66.428 28.9463H71.0211V16.2076H74.6037V12.2268H71.0211V11.9818C71.0211 10.4916 71.8888 9.74643 73.624 9.74643C73.9098 9.74643 74.2467 9.77708 74.6345 9.83832V5.91874C74.1651 5.81665 73.624 5.76562 73.0113 5.76562C70.9291 5.76562 69.3063 6.30662 68.1425 7.38856C66.9995 8.47055 66.428 10.0016 66.428 11.9818V12.2268H63.6106V16.2076H66.428V28.9463Z" fill="black"/>
<path d="M76.9663 28.9464H81.5598V19.9436C81.5598 18.6983 81.9068 17.7389 82.6007 17.0652C83.2951 16.3711 84.2035 16.0241 85.3261 16.0241H86.7652V12.0432H85.7855C84.7646 12.0432 83.8562 12.2372 83.0602 12.625C82.2846 12.9925 81.6823 13.6968 81.2537 14.7379V12.2269H76.9663V28.9464Z" fill="black"/>
<path d="M91.3815 35.7443C94.4434 35.7443 96.6585 33.9989 98.0264 30.508L105.192 12.2268H100.262L96.3116 22.975L92.3612 12.2268H87.4311L94.0148 28.9463L93.7086 29.6506C93.4637 30.2018 93.1472 30.6917 92.7594 31.1204C92.3716 31.5491 91.7285 31.7635 90.83 31.7635C90.0952 31.7635 89.4013 31.6614 88.7478 31.4573V35.2237C89.0951 35.4074 89.4929 35.5401 89.9423 35.6218C90.4118 35.7035 90.8916 35.7443 91.3815 35.7443Z" fill="black"/>
</svg>
